<svg xmlns="http://www.w3.org/2000/svg" width="256" height="256" viewBox="0 0 100 100"><rect width="100" height="100" rx="20" fill="#7d6ee7"></rect><path fill="#fff" d="M24.83 68.03Q25.01 68.03 25.01 68.39Q25.01 68.75 24.83 68.75L24.83 68.75Q22.73 68.75 21.47 68.69L21.47 68.69L16.85 68.63L11.45 68.69Q10.37 68.75 8.51 68.75L8.51 68.75Q8.33 68.75 8.33 68.39Q8.33 68.03 8.51 68.03L8.51 68.03Q10.73 68.03 11.75 67.73Q12.77 67.43 13.13 66.59Q13.49 65.75 13.49 63.89L13.49 63.89L13.49 41.15L-5.17 61.13L-5.17 63.89Q-5.17 65.69-4.81 66.56Q-4.45 67.43-3.43 67.73Q-2.41 68.03-0.19 68.03L-0.19 68.03Q-0.07 68.03-0.07 68.39Q-0.07 68.75-0.19 68.75L-0.19 68.75Q-2.29 68.75-3.55 68.69L-3.55 68.69L-8.77 68.63L-13.27 68.69Q-14.47 68.75-16.57 68.75L-16.57 68.75Q-16.69 68.75-16.69 68.39Q-16.69 68.03-16.57 68.03L-16.57 68.03Q-14.47 68.03-13.51 67.73Q-12.55 67.43-12.19 66.56Q-11.83 65.69-11.83 63.89L-11.83 63.89L-11.83 36.11Q-11.83 34.31-12.19 33.47Q-12.55 32.63-13.48 32.30Q-14.41 31.97-16.45 31.97L-16.45 31.97Q-16.63 31.97-16.63 31.61Q-16.63 31.25-16.45 31.25L-16.45 31.25L-13.21 31.31Q-10.45 31.43-8.77 31.43L-8.77 31.43Q-6.49 31.43-3.49 31.31L-3.49 31.31L-0.19 31.25Q-0.07 31.25-0.07 31.61Q-0.07 31.97-0.19 31.97L-0.19 31.97Q-2.35 31.97-3.37 32.33Q-4.39 32.69-4.78 33.56Q-5.17 34.43-5.17 36.23L-5.17 36.23L-5.17 58.67L13.49 38.75L13.49 36.23Q13.49 34.43 13.13 33.56Q12.77 32.69 11.75 32.33Q10.73 31.97 8.51 31.97L8.51 31.97Q8.33 31.97 8.33 31.61Q8.33 31.25 8.51 31.25L8.51 31.25L11.45 31.31Q14.45 31.43 16.85 31.43L16.85 31.43Q18.47 31.43 21.47 31.31L21.47 31.31L24.83 31.25Q25.01 31.25 25.01 31.61Q25.01 31.97 24.83 31.97L24.83 31.97Q22.79 31.97 21.83 32.30Q20.87 32.63 20.51 33.47Q20.15 34.31 20.15 36.11L20.15 36.11L20.15 63.89Q20.15 65.69 20.51 66.56Q20.87 67.43 21.83 67.73Q22.79 68.03 24.83 68.03L24.83 68.03ZM70.67 68.03Q70.85 68.03 70.85 68.39Q70.85 68.75 70.67 68.75L70.67 68.75Q68.57 68.75 67.31 68.69L67.31 68.69L62.69 68.63L57.29 68.69Q56.21 68.75 54.35 68.75L54.35 68.75Q54.17 68.75 54.17 68.39Q54.17 68.03 54.35 68.03L54.35 68.03Q56.57 68.03 57.59 67.73Q58.61 67.43 58.97 66.59Q59.33 65.75 59.33 63.89L59.33 63.89L59.33 50.09L39.95 50.09L39.95 63.89Q39.95 65.69 40.31 66.56Q40.67 67.43 41.69 67.73Q42.71 68.03 44.93 68.03L44.93 68.03Q45.05 68.03 45.05 68.39Q45.05 68.75 44.93 68.75L44.93 68.75Q42.83 68.75 41.57 68.69L41.57 68.69L36.35 68.63L31.85 68.69Q30.65 68.75 28.55 68.75L28.55 68.75Q28.43 68.75 28.43 68.39Q28.43 68.03 28.55 68.03L28.55 68.03Q30.65 68.03 31.61 67.73Q32.57 67.43 32.93 66.56Q33.29 65.69 33.29 63.89L33.29 63.89L33.29 36.11Q33.29 34.31 32.93 33.47Q32.57 32.63 31.64 32.30Q30.71 31.97 28.67 31.97L28.67 31.97Q28.49 31.97 28.49 31.61Q28.49 31.25 28.67 31.25L28.67 31.25L31.91 31.31Q34.67 31.43 36.35 31.43L36.35 31.43Q38.63 31.43 41.63 31.31L41.63 31.31L44.93 31.25Q45.05 31.25 45.05 31.61Q45.05 31.97 44.93 31.97L44.93 31.97Q42.77 31.97 41.75 32.33Q40.73 32.69 40.34 33.56Q39.95 34.43 39.95 36.23L39.95 36.23L39.95 48.41L59.33 48.41L59.33 36.23Q59.33 34.43 58.97 33.56Q58.61 32.69 57.59 32.33Q56.57 31.97 54.35 31.97L54.35 31.97Q54.17 31.97 54.17 31.61Q54.17 31.25 54.35 31.25L54.35 31.25L57.29 31.31Q60.29 31.43 62.69 31.43L62.69 31.43Q64.31 31.43 67.31 31.31L67.31 31.31L70.67 31.25Q70.85 31.25 70.85 31.61Q70.85 31.97 70.67 31.97L70.67 31.97Q68.63 31.97 67.64 32.30Q66.65 32.63 66.32 33.47Q65.99 34.31 65.99 36.11L65.99 36.11L65.99 63.89Q65.99 65.69 66.32 66.56Q66.65 67.43 67.61 67.73Q68.57 68.03 70.67 68.03L70.67 68.03ZM116.51 68.03Q116.69 68.03 116.69 68.39Q116.69 68.75 116.51 68.75L116.51 68.75Q114.41 68.75 113.15 68.69L113.15 68.69L108.53 68.63L103.13 68.69Q102.05 68.75 100.19 68.75L100.19 68.75Q100.01 68.75 100.01 68.39Q100.01 68.03 100.19 68.03L100.19 68.03Q102.41 68.03 103.43 67.73Q104.45 67.43 104.81 66.59Q105.17 65.75 105.17 63.89L105.17 63.89L105.17 50.09L85.79 50.09L85.79 63.89Q85.79 65.69 86.15 66.56Q86.51 67.43 87.53 67.73Q88.55 68.03 90.77 68.03L90.77 68.03Q90.89 68.03 90.89 68.39Q90.89 68.75 90.77 68.75L90.77 68.75Q88.67 68.75 87.41 68.69L87.41 68.69L82.19 68.63L77.69 68.69Q76.49 68.75 74.39 68.75L74.39 68.75Q74.27 68.75 74.27 68.39Q74.27 68.03 74.39 68.03L74.39 68.03Q76.49 68.03 77.45 67.73Q78.41 67.43 78.77 66.56Q79.13 65.69 79.13 63.89L79.13 63.89L79.13 36.11Q79.13 34.31 78.77 33.47Q78.41 32.63 77.48 32.30Q76.55 31.97 74.51 31.97L74.51 31.97Q74.33 31.97 74.33 31.61Q74.33 31.25 74.51 31.25L74.51 31.25L77.75 31.31Q80.51 31.43 82.19 31.43L82.19 31.43Q84.47 31.43 87.47 31.31L87.47 31.31L90.77 31.25Q90.89 31.25 90.89 31.61Q90.89 31.97 90.77 31.97L90.77 31.97Q88.61 31.97 87.59 32.33Q86.57 32.69 86.18 33.56Q85.79 34.43 85.79 36.23L85.79 36.23L85.79 48.41L105.17 48.41L105.17 36.23Q105.17 34.43 104.81 33.56Q104.45 32.69 103.43 32.33Q102.41 31.97 100.19 31.97L100.19 31.97Q100.01 31.97 100.01 31.61Q100.01 31.25 100.19 31.25L100.19 31.25L103.13 31.31Q106.13 31.43 108.53 31.43L108.53 31.43Q110.15 31.43 113.15 31.31L113.15 31.31L116.51 31.25Q116.69 31.25 116.69 31.61Q116.69 31.97 116.51 31.97L116.51 31.97Q114.47 31.97 113.48 32.30Q112.49 32.63 112.16 33.47Q111.83 34.31 111.83 36.11L111.83 36.11L111.83 63.89Q111.83 65.69 112.16 66.56Q112.49 67.43 113.45 67.73Q114.41 68.03 116.51 68.03L116.51 68.03Z"></path></svg>